<svg width="136" height="36" viewBox="0 0 272 73" fill="none" xmlns="http://www.w3.org/2000/svg">
<path d="M105.728 49.5216V19.8509H112.421V49.5216H105.728ZM96.3072 25.2649V19.4246H121.843V25.2649H96.3072ZM130.261 49.9905C128.015 49.9905 126.012 49.5358 124.25 48.6264C122.516 47.6885 121.152 46.3954 120.157 44.747C119.162 43.0986 118.665 41.2371 118.665 39.1624C118.665 37.0877 119.148 35.2404 120.115 33.6205C121.109 31.9721 122.445 30.679 124.122 29.7411C125.799 28.8033 127.689 28.3343 129.792 28.3343C131.838 28.3343 133.643 28.7748 135.206 29.6559C136.769 30.5369 137.991 31.759 138.872 33.3221C139.781 34.8852 140.236 36.6757 140.236 38.6935C140.236 39.063 140.208 39.4608 140.151 39.8871C140.122 40.285 140.051 40.754 139.938 41.2939L122.076 41.3366V36.8604L137.167 36.8178L134.353 38.6935C134.325 37.4998 134.14 36.5193 133.799 35.752C133.458 34.9562 132.946 34.3594 132.264 33.9615C131.611 33.5352 130.801 33.3221 129.834 33.3221C128.811 33.3221 127.916 33.5636 127.149 34.0468C126.41 34.5015 125.827 35.1552 125.401 36.0078C125.003 36.8604 124.804 37.8977 124.804 39.1198C124.804 40.3419 125.017 41.3934 125.443 42.2744C125.898 43.127 126.523 43.7949 127.319 44.2781C128.143 44.7328 129.11 44.9601 130.218 44.9601C131.241 44.9601 132.165 44.7896 132.989 44.4486C133.813 44.0791 134.538 43.5391 135.163 42.8286L138.744 46.4096C137.721 47.6032 136.485 48.4985 135.035 49.0953C133.586 49.6921 131.994 49.9905 130.261 49.9905ZM153.403 49.9905C151.271 49.9905 149.338 49.5216 147.605 48.5837C145.871 47.6459 144.507 46.3527 143.512 44.7044C142.518 43.056 142.02 41.2087 142.02 39.1624C142.02 37.0877 142.518 35.2404 143.512 33.6205C144.535 31.9721 145.914 30.679 147.647 29.7411C149.381 28.8033 151.328 28.3343 153.488 28.3343C155.108 28.3343 156.586 28.6185 157.921 29.1869C159.286 29.7269 160.493 30.5511 161.545 31.6595L157.367 35.8373C156.884 35.2973 156.316 34.8994 155.662 34.6436C155.037 34.3878 154.312 34.2599 153.488 34.2599C152.55 34.2599 151.712 34.4731 150.973 34.8994C150.262 35.2973 149.694 35.8657 149.267 36.6046C148.869 37.3151 148.671 38.1535 148.671 39.1198C148.671 40.0861 148.869 40.9387 149.267 41.6776C149.694 42.4165 150.276 42.9992 151.015 43.4255C151.754 43.8518 152.578 44.0649 153.488 44.0649C154.34 44.0649 155.094 43.9228 155.747 43.6386C156.429 43.326 157.012 42.8997 157.495 42.3597L161.63 46.5375C160.55 47.6743 159.328 48.5411 157.964 49.1379C156.6 49.7063 155.079 49.9905 153.403 49.9905ZM178.217 49.5216V37.713C178.217 36.633 177.876 35.7662 177.194 35.1125C176.541 34.4305 175.702 34.0894 174.679 34.0894C173.969 34.0894 173.343 34.2457 172.803 34.5583C172.263 34.8425 171.837 35.2689 171.524 35.8373C171.212 36.3772 171.055 37.0025 171.055 37.713L168.54 36.4767C168.54 34.8568 168.881 33.4357 169.563 32.2137C170.246 30.9916 171.198 30.0537 172.42 29.4001C173.642 28.718 175.049 28.3769 176.64 28.3769C178.26 28.3769 179.681 28.718 180.903 29.4001C182.125 30.0537 183.063 30.9774 183.717 32.171C184.399 33.3363 184.74 34.7004 184.74 36.2636V49.5216H178.217ZM164.533 49.5216V18.572H171.055V49.5216H164.533ZM188.929 49.5216V18.572H195.451V49.5216H188.929ZM210.02 49.9905C207.888 49.9905 205.956 49.5216 204.222 48.5837C202.517 47.6174 201.167 46.3101 200.172 44.6617C199.178 43.0134 198.68 41.166 198.68 39.1198C198.68 37.0735 199.178 35.2404 200.172 33.6205C201.167 32.0005 202.517 30.7216 204.222 29.7837C205.927 28.8175 207.86 28.3343 210.02 28.3343C212.18 28.3343 214.112 28.8033 215.818 29.7411C217.523 30.679 218.873 31.9721 219.868 33.6205C220.862 35.2404 221.36 37.0735 221.36 39.1198C221.36 41.166 220.862 43.0134 219.868 44.6617C218.873 46.3101 217.523 47.6174 215.818 48.5837C214.112 49.5216 212.18 49.9905 210.02 49.9905ZM210.02 44.0649C210.958 44.0649 211.782 43.866 212.492 43.4681C213.203 43.0418 213.743 42.4592 214.112 41.7202C214.51 40.9529 214.709 40.0861 214.709 39.1198C214.709 38.1535 214.51 37.3151 214.112 36.6046C213.715 35.8657 213.16 35.2973 212.45 34.8994C211.768 34.4731 210.958 34.2599 210.02 34.2599C209.11 34.2599 208.301 34.4731 207.59 34.8994C206.879 35.2973 206.325 35.8657 205.927 36.6046C205.53 37.3435 205.331 38.1961 205.331 39.1624C205.331 40.1003 205.53 40.9529 205.927 41.7202C206.325 42.4592 206.879 43.0418 207.59 43.4681C208.301 43.866 209.11 44.0649 210.02 44.0649ZM233.389 58.815C231.115 58.815 229.111 58.4171 227.378 57.6214C225.673 56.854 224.323 55.7598 223.328 54.3388L227.335 50.3316C228.074 51.2126 228.898 51.8805 229.808 52.3352C230.746 52.7899 231.868 53.0173 233.176 53.0173C234.795 53.0173 236.06 52.6194 236.97 51.8236C237.907 51.0279 238.376 49.9053 238.376 48.4558V43.1697L239.485 38.6509L238.504 34.132V28.8033H244.899V48.2853C244.899 50.4168 244.402 52.2641 243.407 53.8273C242.412 55.3904 241.048 56.6124 239.314 57.4935C237.581 58.3745 235.605 58.815 233.389 58.815ZM233.09 48.8821C231.186 48.8821 229.495 48.4274 228.017 47.518C226.539 46.6085 225.374 45.3722 224.522 43.8091C223.669 42.246 223.243 40.5124 223.243 38.6082C223.243 36.6757 223.669 34.942 224.522 33.4073C225.374 31.8442 226.539 30.6221 228.017 29.7411C229.495 28.8317 231.186 28.3769 233.09 28.3769C234.511 28.3769 235.776 28.6469 236.884 29.1869C238.021 29.6985 238.931 30.4374 239.613 31.4037C240.323 32.3416 240.721 33.4357 240.806 34.6862V42.5728C240.721 43.7949 240.323 44.8891 239.613 45.8554C238.931 46.7933 238.021 47.5322 236.884 48.0722C235.748 48.6121 234.483 48.8821 233.09 48.8821ZM234.327 43.0844C235.236 43.0844 236.018 42.8855 236.671 42.4876C237.353 42.0897 237.865 41.5639 238.206 40.9103C238.575 40.2282 238.76 39.4608 238.76 38.6082C238.76 37.7556 238.575 36.9883 238.206 36.3062C237.865 35.6241 237.353 35.0841 236.671 34.6862C236.018 34.2884 235.236 34.0894 234.327 34.0894C233.446 34.0894 232.664 34.2884 231.982 34.6862C231.3 35.0841 230.774 35.6241 230.405 36.3062C230.035 36.9883 229.85 37.7556 229.85 38.6082C229.85 39.404 230.035 40.1571 230.405 40.8676C230.774 41.5497 231.286 42.0897 231.939 42.4876C232.621 42.8855 233.417 43.0844 234.327 43.0844ZM259.478 49.9905C257.346 49.9905 255.414 49.5216 253.68 48.5837C251.975 47.6174 250.625 46.3101 249.63 44.6617C248.635 43.0134 248.138 41.166 248.138 39.1198C248.138 37.0735 248.635 35.2404 249.63 33.6205C250.625 32.0005 251.975 30.7216 253.68 29.7837C255.385 28.8175 257.318 28.3343 259.478 28.3343C261.638 28.3343 263.57 28.8033 265.275 29.7411C266.981 30.679 268.331 31.9721 269.325 33.6205C270.32 35.2404 270.817 37.0735 270.817 39.1198C270.817 41.166 270.32 43.0134 269.325 44.6617C268.331 46.3101 266.981 47.6174 265.275 48.5837C263.57 49.5216 261.638 49.9905 259.478 49.9905ZM259.478 44.0649C260.416 44.0649 261.24 43.866 261.95 43.4681C262.661 43.0418 263.201 42.4592 263.57 41.7202C263.968 40.9529 264.167 40.0861 264.167 39.1198C264.167 38.1535 263.968 37.3151 263.57 36.6046C263.172 35.8657 262.618 35.2973 261.908 34.8994C261.226 34.4731 260.416 34.2599 259.478 34.2599C258.568 34.2599 257.758 34.4731 257.048 34.8994C256.337 35.2973 255.783 35.8657 255.385 36.6046C254.987 37.3435 254.788 38.1961 254.788 39.1624C254.788 40.1003 254.987 40.9529 255.385 41.7202C255.783 42.4592 256.337 43.0418 257.048 43.4681C257.758 43.866 258.568 44.0649 259.478 44.0649Z" fill="#263238"/>
<path d="M62.4982 72.1571C59.9014 72.1571 57.4598 71.1457 55.626 69.3107C53.788 67.4776 52.7778 65.0378 52.7778 62.4405C52.7778 59.8474 53.788 57.4076 55.6211 55.5757C57.4567 53.7395 59.8983 52.7282 62.4945 52.7282C65.0893 52.7282 67.5292 53.7365 69.3623 55.5714C73.1508 59.3612 73.1508 65.5271 69.3623 69.3151C67.5292 71.1488 65.0906 72.1571 62.4982 72.1571" fill="#FFA726"/>
<path d="M9.71971 20.3532C7.12359 20.3532 4.68192 19.3412 2.84572 17.505C1.01139 15.6719 0 13.2327 0 10.6366C0 8.04168 1.0083 5.60308 2.8414 3.77183C4.67945 1.9344 7.12173 0.922417 9.71786 0.922417C12.3115 0.922417 14.7507 1.93257 16.5832 3.76568C18.4206 5.60187 19.4314 8.04292 19.4314 10.6378C19.4314 13.2339 18.4206 15.6737 16.5844 17.5099C14.7507 19.343 12.3127 20.3532 9.71971 20.3532Z" fill="#FFA726"/>
<path d="M62.0636 20.0684C59.4656 20.0684 57.0264 19.057 55.1915 17.222C51.4048 13.4341 51.4017 7.27125 55.1859 3.4858C57.0221 1.64961 59.4632 0.636361 62.0611 0.636361C64.6554 0.636361 67.0952 1.64777 68.9302 3.48273C72.7169 7.26941 72.7169 13.4354 68.9302 17.2282C67.0965 19.0582 64.6573 20.0684 62.0636 20.0684Z" fill="#FFA726"/>
<path d="M9.97177 72.1571C7.37626 72.1571 4.93459 71.1457 3.09716 69.3107C1.26221 67.4764 0.253289 65.0378 0.253907 62.4417C0.253907 59.8474 1.26715 57.4076 3.10272 55.5726C3.48701 55.1859 3.92073 54.8325 4.47122 54.4599C4.6368 54.345 4.79002 54.253 4.94818 54.1566C5.30776 53.9502 5.6661 53.7618 6.00035 53.6086C6.18261 53.527 6.3692 53.4436 6.56629 53.3682C6.91536 53.2385 7.30582 53.1223 7.75066 53.0167C7.83963 52.9932 7.9181 52.9722 7.9978 52.9493C8.04784 52.9357 8.09541 52.9191 8.14669 52.9067L10.3091 52.7597C10.5834 52.772 10.8769 52.806 11.1901 52.8474L11.3137 52.8635C11.3872 52.8727 11.4867 52.8808 11.5862 52.8857L11.6733 52.8919L11.7721 52.9117H11.858C12.0162 52.9178 12.1743 52.9209 12.3306 52.9209C16.0593 52.9209 19.739 51.3331 22.4278 48.5665C25.1055 45.8122 26.5809 42.107 26.4746 38.3988L26.4722 38.2888L26.4512 38.1739C26.4314 38.0707 26.4252 37.9651 26.4184 37.8613C26.4092 37.7365 26.3986 37.6129 26.3832 37.4875L26.3591 37.27C26.3381 37.0828 26.3177 36.9006 26.3047 36.7146L26.4709 34.5442C26.4814 34.4898 26.5006 34.4404 26.516 34.3879L26.555 34.2538C26.6544 33.8429 26.7613 33.4302 26.9164 33.0317C26.9961 32.8044 27.0727 32.6369 27.1555 32.4658C27.3285 32.0864 27.5077 31.7417 27.7183 31.3877C27.8104 31.2344 27.8994 31.0794 28.0044 30.9286C28.3973 30.3565 28.7538 29.9191 29.1239 29.5484C30.9589 27.7141 33.3981 26.7039 35.9979 26.7039C38.5922 26.7039 41.0351 27.7128 42.8713 29.5459C46.6549 33.3338 46.6524 39.4986 42.8626 43.2883C42.4795 43.672 42.0452 44.0248 41.4929 44.4023C41.3316 44.5122 41.1784 44.6037 41.0246 44.6945C40.6755 44.9027 40.3233 45.0881 39.973 45.2499C39.7827 45.3352 39.593 45.4223 39.4095 45.4909C39.0376 45.6287 38.6434 45.7467 38.2295 45.8393L37.9966 45.9048C37.944 45.919 37.8922 45.9357 37.8403 45.9499L35.6562 46.1044C35.4004 46.0939 35.1323 46.0593 34.8481 46.0228L34.6541 45.9994C34.5892 45.9882 34.4867 45.9815 34.3847 45.9753L34.3075 45.9679L34.1963 45.9462H34.1086C33.9492 45.9407 33.7929 45.9388 33.6347 45.9388C29.9067 45.9388 26.2281 47.5254 23.5406 50.2914C20.861 53.047 19.3863 56.7558 19.4919 60.464L19.495 60.5746L19.5154 60.684C19.5358 60.789 19.5401 60.8928 19.5488 60.9984C19.558 61.1232 19.5691 61.2474 19.584 61.3704C19.5877 61.4439 19.6031 61.578 19.6198 61.7089C19.6365 61.8578 19.6556 62.0024 19.6556 62.1513V62.2038L19.4993 64.2841C19.4888 64.3273 19.4196 64.5676 19.3999 64.6424C19.2948 65.0903 19.1756 65.4882 19.0434 65.8447C18.9711 66.0436 18.8976 66.2154 18.8117 66.394C18.643 66.7628 18.4595 67.1168 18.2513 67.4764C18.1599 67.6234 18.0518 67.7964 17.9418 67.9626C17.5804 68.4859 17.222 68.9271 16.8383 69.3126C15.0077 71.1457 12.5685 72.1571 9.97362 72.1571H9.97177" fill="#FFA726"/>
<path d="M36.2087 72.1571C33.6108 72.1571 31.1697 71.1457 29.3335 69.3089C27.4986 67.4752 26.489 65.0366 26.4878 62.4405C26.4859 59.8474 27.4961 57.4088 29.3292 55.5788C29.7036 55.202 30.128 54.8566 30.7094 54.4544C30.8534 54.3568 31.0085 54.2622 31.1709 54.1683C31.528 53.9552 31.8709 53.7741 32.2274 53.6104C32.4177 53.5245 32.6025 53.4387 32.7909 53.3682C33.1517 53.2354 33.5447 53.1192 33.9617 53.0278C33.9617 53.0278 34.3034 52.9289 34.3472 52.9178L36.5442 52.7566C36.8037 52.7689 37.083 52.806 37.3752 52.8437L37.5377 52.8653C37.6458 52.8758 37.736 52.8845 37.8268 52.8857C37.8633 52.8888 37.8991 52.8888 37.9337 52.8919L38.0029 52.9018L38.0944 52.9104C38.255 52.9147 38.4181 52.9191 38.5794 52.9191C42.2999 52.9178 45.9735 51.3331 48.6568 48.5695C51.3345 45.8171 52.8092 42.107 52.7042 38.3988L52.6906 37.9459L52.6505 37.8959C52.6486 37.8805 52.6486 37.8625 52.6467 37.8465C52.6412 37.7408 52.635 37.6339 52.6245 37.5271L52.5887 37.2157C52.5683 37.0445 52.546 36.8759 52.5399 36.7041L52.6906 34.601C52.7023 34.5503 52.7777 34.2896 52.7956 34.2111C52.9192 33.7088 53.0273 33.3412 53.1515 33.015C53.2201 32.8192 53.3047 32.64 53.39 32.4522C53.5457 32.113 53.7273 31.7689 53.9504 31.3895L53.9924 31.3203C54.0678 31.1924 54.1394 31.0658 54.2284 30.9428C54.6263 30.3633 54.9797 29.9265 55.3528 29.5533C57.1897 27.7171 59.6313 26.7057 62.2281 26.7057C64.823 26.7057 67.2615 27.7153 69.0959 29.5484C72.8819 33.3357 72.8819 39.5035 69.0959 43.2945C68.7289 43.6603 68.2908 44.0143 67.72 44.4084C67.61 44.4838 67.505 44.5462 67.3993 44.6099L67.2294 44.7155C66.9044 44.9077 66.5504 45.093 66.2063 45.2512C66.0117 45.3383 65.8288 45.4223 65.6354 45.4946C65.295 45.6225 64.9206 45.7312 64.4479 45.8443C64.3534 45.8665 64.2768 45.8906 64.2014 45.9135C64.1483 45.9271 64.0989 45.9431 64.0476 45.9555L61.8883 46.1044C61.5726 46.0908 61.2303 46.0445 60.8991 46.0006C60.7867 45.987 60.6989 45.9827 60.6131 45.9783C60.5803 45.9765 60.547 45.9765 60.5142 45.9722L60.3301 45.9524C60.1694 45.9462 60.0101 45.9431 59.85 45.9431C56.127 45.9431 52.4527 47.5297 49.7658 50.2927C47.0906 53.0488 45.6164 56.7558 45.7252 60.4671L45.7283 60.5758L45.7493 60.6821C45.7703 60.7921 45.7746 60.9051 45.7826 61.0151C45.7901 61.1294 45.7987 61.2412 45.8111 61.3506C45.8185 61.4427 45.8321 61.5594 45.8438 61.6743C45.8636 61.8387 45.8834 62.0036 45.8877 62.168L45.7283 64.3001C45.7159 64.3471 45.6331 64.6344 45.6331 64.6344C45.5293 65.086 45.4138 65.482 45.2766 65.854C45.2118 66.0288 45.1352 66.1969 45.0567 66.3729L45.0301 66.4347C44.8689 66.7826 44.6878 67.1255 44.4864 67.461C44.3876 67.6272 44.2893 67.789 44.1856 67.9429C43.805 68.4952 43.4466 68.9345 43.0629 69.3219C41.2366 71.1488 38.8018 72.1571 36.2087 72.1571" fill="#FFA726"/>
<path d="M9.97557 45.9252C7.37945 45.9252 4.93902 44.9157 3.10468 43.082C1.2691 41.2452 0.257098 38.8047 0.255862 36.2086C0.254008 33.6156 1.26231 31.1789 3.09727 29.3458C3.47352 28.9689 3.91156 28.6142 4.47502 28.2256C4.62145 28.1268 4.78764 28.0254 4.95322 27.926C5.28871 27.7277 5.6316 27.5454 5.99798 27.3774C6.1858 27.2915 6.37238 27.2068 6.57071 27.1333C6.92781 27.0023 7.32199 26.8868 7.73223 26.7947L7.97937 26.7255C8.02508 26.7119 8.06895 26.6971 8.11405 26.6866L10.3129 26.5284C10.5983 26.5402 10.9073 26.581 11.2304 26.6242L11.2984 26.6335C11.4114 26.6452 11.4985 26.6502 11.5875 26.6545C11.619 26.6557 11.6505 26.6557 11.682 26.6607L11.7766 26.6767L11.8655 26.6804C12.0286 26.6847 12.1893 26.6878 12.3505 26.6878C16.0699 26.6878 19.7435 25.1031 22.4279 22.3377C25.1044 19.5828 26.5779 15.8739 26.471 12.1639L26.468 12.057L26.4469 11.952C26.4241 11.834 26.421 11.7153 26.4136 11.5948C26.408 11.4972 26.4018 11.399 26.3913 11.2971L26.358 10.9974C26.3351 10.8201 26.3129 10.6391 26.3085 10.4587L26.4544 8.41797L26.468 8.37103V8.33084C26.4797 8.28389 26.56 8.01267 26.56 8.01267C26.683 7.4906 26.7929 7.11312 26.9165 6.78011C26.9857 6.59662 27.0716 6.41311 27.1587 6.22343C27.3168 5.87436 27.5022 5.52036 27.716 5.16078L27.7487 5.10515C27.8327 4.9649 27.9161 4.82529 28.0107 4.68504C28.3956 4.12652 28.7496 3.69033 29.1197 3.3221C30.9559 1.48529 33.3969 0.473895 35.9949 0.473895C38.591 0.473895 41.0308 1.48405 42.867 3.31839C46.6537 7.10693 46.6506 13.2729 42.8627 17.0596C42.4877 17.4358 42.041 17.7991 41.4942 18.1692C41.3453 18.2742 41.2174 18.3496 41.0846 18.4281L41.0129 18.4701C40.6564 18.682 40.3049 18.8673 39.9743 19.0193C39.7785 19.1095 39.595 19.193 39.4084 19.2615C39.0439 19.3975 38.6571 19.5117 38.2209 19.6124C38.1289 19.6347 38.0461 19.6594 37.9639 19.6816C37.9139 19.6952 37.8632 19.7113 37.8113 19.7243L35.6576 19.8744C35.3857 19.8608 35.0935 19.825 34.7877 19.7855L34.6554 19.7688C34.556 19.757 34.4645 19.7521 34.3756 19.7465C34.3391 19.7447 34.3033 19.7447 34.2674 19.7385L34.1952 19.7298L34.1 19.7224C33.9394 19.7163 33.7794 19.7131 33.6181 19.7131C29.8981 19.7131 26.2239 21.2979 23.5388 24.0602C20.8611 26.8157 19.3864 30.5258 19.492 34.2371L19.4951 34.3459L19.5143 34.4521C19.5371 34.5609 19.5415 34.6733 19.5489 34.7839C19.5563 34.8976 19.5655 35.0094 19.5773 35.1237C19.5865 35.2139 19.6001 35.3294 19.6137 35.4444C19.6317 35.6068 19.6527 35.7663 19.6557 35.9275L19.5007 38.0448C19.4889 38.0992 19.471 38.1548 19.4543 38.2116L19.4 38.4013C19.2918 38.8758 19.1775 39.27 19.0478 39.6209C18.9786 39.8038 18.8896 39.9934 18.8013 40.1887C18.6413 40.5371 18.4609 40.8825 18.2502 41.2341C18.1495 41.4021 18.0562 41.5603 17.9549 41.7098C17.5564 42.2875 17.2135 42.7119 16.8384 43.0838C15.0041 44.9169 12.5674 45.9252 9.97557 45.9252" fill="#FFA726"/>
</svg>
