<svg width="512" height="512" viewBox="0 0 512 512" fill="none" xmlns="http://www.w3.org/2000/svg">
<g clip-path="url(#clip0_207_128)">
<path d="M356.777 252.018C355.435 248.928 354.512 245.669 354.032 242.332C352.785 233.662 350.387 225.183 346.908 217.129C345.267 213.329 340.857 211.577 337.052 213.22C333.25 214.863 331.5 219.276 333.143 223.077C336.096 229.913 338.131 237.11 339.189 244.467C339.86 249.124 341.149 253.673 343.019 257.986L359.295 295.516C366.169 311.366 363.974 328.996 353.423 342.676C344.433 354.331 331.126 360.822 316.827 360.876C320.972 352.144 323.3 342.388 323.3 332.097V263.096C323.3 254.733 316.751 248.008 308.389 247.788L265.967 246.67C251.5 246.288 237.351 241.048 226.126 231.917L223.334 229.644C220.729 227.524 217.455 226.556 214.114 226.91C210.774 227.267 207.779 228.907 205.68 231.53C194.674 245.281 188.613 262.554 188.613 280.166V332.097C188.613 342.388 190.941 352.143 195.086 360.876C180.788 360.823 167.48 354.332 158.491 342.676C147.939 328.996 145.744 311.367 152.618 295.516L168.894 257.987C170.764 253.673 172.053 249.124 172.724 244.467C175.604 224.451 185.609 206.132 200.893 192.89C216.177 179.647 235.733 172.354 255.956 172.354C278.81 172.354 300.195 181.375 316.171 197.755C319.061 200.722 323.809 200.779 326.773 197.888C329.738 194.998 329.798 190.249 326.906 187.286C308.084 167.986 282.887 157.358 255.955 157.358C232.125 157.358 209.082 165.951 191.072 181.555C173.063 197.159 161.274 218.744 157.88 242.331C157.4 245.669 156.477 248.928 155.135 252.018L138.86 289.549C129.781 310.482 132.68 333.767 146.617 351.835C158.537 367.291 176.199 375.905 195.174 375.904C198.185 375.904 201.235 375.678 204.295 375.237C209.584 381.56 216.012 386.897 223.258 390.94V405.41L184.921 420.79C158.06 431.567 140.703 457.234 140.703 486.177V504.501C140.703 508.643 144.059 511.999 148.201 511.999C152.343 511.999 155.699 508.643 155.699 504.501V486.177C155.699 463.394 169.362 443.191 190.505 434.709L225.013 420.864C229.323 433.257 241.114 442.178 254.956 442.178C268.797 442.178 280.588 433.256 284.898 420.864L319.41 434.711C320.316 435.074 321.273 435.495 322.423 436.035C323.454 436.52 324.54 436.75 325.61 436.75C328.424 436.75 331.122 435.158 332.4 432.441C334.163 428.694 332.553 424.227 328.806 422.465C327.385 421.797 326.173 421.265 324.992 420.791L286.655 405.41V392.005C294.72 387.855 301.847 382.136 307.617 375.237C310.679 375.679 313.725 375.904 316.738 375.904C335.712 375.904 353.376 367.29 365.296 351.835C379.231 333.768 382.131 310.483 373.053 289.549L356.777 252.018ZM271.659 410.482C271.659 419.691 264.166 427.183 254.957 427.183C245.747 427.183 238.255 419.691 238.255 410.482V397.062C243.9 398.602 249.831 399.44 255.957 399.44C261.363 399.44 266.617 398.782 271.659 397.572V410.482ZM255.957 384.444C227.093 384.444 203.61 360.962 203.61 332.098V280.167C203.61 266.787 207.943 253.65 215.858 242.896L216.663 243.551C230.443 254.761 247.813 261.192 265.572 261.661L307.993 262.779C308.168 262.784 308.305 262.924 308.305 263.097V332.098C308.303 360.962 284.82 384.444 255.957 384.444Z" fill="#FF8A65"/>
<path d="M345.798 443.688C342.417 446.08 341.617 450.76 344.01 454.139C350.685 463.57 354.213 474.648 354.213 486.178V504.502C354.213 508.644 357.569 512 361.711 512C365.853 512 369.21 508.644 369.21 504.502V486.178C369.21 471.527 364.729 457.452 356.249 445.475C353.856 442.094 349.177 441.294 345.798 443.688Z" fill="#FF8A65"/>
<path d="M114.226 112.291C97.5231 100.878 76.6304 98.7417 56.9015 106.439C42.5101 112.051 31.0041 123.484 25.3295 137.805C21.6375 147.125 20.1139 156.657 20.8047 166.135C21.1066 170.265 24.6857 173.373 28.8276 173.07C32.9576 172.769 36.0618 169.177 35.7619 165.047C35.237 157.84 36.4177 150.532 39.272 143.329C43.4169 132.868 51.8298 124.515 62.3521 120.41C77.3922 114.544 93.2172 116.097 105.766 124.673C118.031 133.053 125.352 146.91 125.352 161.741C125.352 171.048 122.528 179.972 117.185 187.551C117.123 187.639 117.063 187.729 117.004 187.819L91.8115 227.039C91.0357 228.249 90.6228 229.654 90.6228 231.092V234.507H87.9925V196.97C95.6086 196.286 101.599 189.875 101.599 182.084V169.781C101.599 161.536 94.8907 154.827 86.6458 154.827H74.342C66.0971 154.827 59.3888 161.536 59.3888 169.781V182.084C59.3888 189.874 65.3803 196.286 72.9953 196.97V234.508H70.365V231.093C70.365 229.655 69.9521 228.25 69.1763 227.04L46.2502 191.348C44.0128 187.864 39.3739 186.854 35.8888 189.092C32.4057 191.329 31.395 195.969 33.6324 199.453L55.3689 233.293V238.665C55.3689 240.809 56.0027 242.805 57.0814 244.489V252.253C57.0814 264.315 66.8949 274.13 78.9588 274.13H82.028C94.0909 274.13 103.905 264.316 103.905 252.253V244.489C104.984 242.805 105.618 240.809 105.618 238.665V233.293L129.537 196.056C136.609 185.964 140.347 174.102 140.347 161.742C140.347 141.954 130.583 123.468 114.226 112.291ZM86.6019 169.781L86.6498 182.041L80.8923 182.061C80.7594 182.054 80.6274 182.041 80.4924 182.041C80.3375 182.041 80.1855 182.055 80.0335 182.064L74.384 182.084L74.341 169.824L86.6019 169.781ZM88.9093 252.252C88.9093 256.046 85.8221 259.133 82.028 259.133H78.9588C75.1648 259.133 72.0776 256.046 72.0776 252.252V249.503H88.9093V252.252Z" fill="#FF8A65"/>
<path d="M254.957 133.133C291.662 133.133 321.524 103.272 321.524 66.566C321.524 29.8614 291.662 0 254.957 0C218.251 0 188.39 29.8614 188.39 66.566C188.39 103.272 218.251 133.133 254.957 133.133ZM254.957 14.9962C283.393 14.9962 306.528 38.1302 306.528 66.566C306.528 95.0017 283.393 118.137 254.957 118.137C226.521 118.137 203.386 95.0017 203.386 66.566C203.386 38.1302 226.521 14.9962 254.957 14.9962Z" fill="#FF8A65"/>
<path d="M241.772 91.5875C243.236 93.0512 245.155 93.783 247.074 93.783C248.992 93.783 250.912 93.0512 252.376 91.5875L287.405 56.5585C290.334 53.6293 290.334 48.8825 287.405 45.9542C284.476 43.027 279.729 43.027 276.801 45.9542L247.075 75.6816L242.03 70.6379C239.103 67.7107 234.355 67.7097 231.427 70.6389C228.499 73.5672 228.499 78.3149 231.428 81.2422L241.772 91.5875Z" fill="#FF8A65"/>
<path d="M490.776 149.137C489.391 144.869 485.772 141.819 481.332 141.173L450.171 136.645L436.235 108.407C434.25 104.385 430.23 101.887 425.745 101.887C421.261 101.887 417.241 104.385 415.256 108.407L401.319 136.645L370.157 141.173C365.718 141.819 362.099 144.869 360.715 149.136C359.329 153.402 360.464 157.996 363.675 161.126L386.224 183.105L380.901 214.142C380.144 218.563 381.927 222.947 385.555 225.582C389.183 228.22 393.903 228.561 397.874 226.473L425.746 211.82L453.619 226.473C455.345 227.381 457.214 227.829 459.073 227.829C461.488 227.829 463.887 227.071 465.939 225.581C469.567 222.944 471.349 218.561 470.591 214.141L465.268 183.106L487.815 161.127C491.026 157.997 492.162 153.402 490.776 149.137ZM453.558 173.576C450.801 176.263 449.542 180.134 450.193 183.931L454.679 210.089L431.189 197.739C429.484 196.844 427.615 196.395 425.745 196.395C423.876 196.395 422.005 196.843 420.3 197.738L396.809 210.089L401.296 183.929C401.946 180.133 400.688 176.262 397.932 173.577L378.927 155.052L405.193 151.236C409.004 150.68 412.297 148.288 413.998 144.837L425.744 121.037L437.488 144.833C439.191 148.287 442.484 150.68 446.298 151.235L472.561 155.051L453.558 173.576Z" fill="#FF8A65"/>
<path d="M334.463 96.1793C345.906 100.642 356.992 106.109 367.552 112.456C364.251 114.007 362.484 117.771 363.557 121.373C364.527 124.627 367.509 126.732 370.74 126.732C371.449 126.732 372.17 126.63 372.885 126.418L387.089 122.187C390.267 121.241 392.446 118.318 392.446 115.001V99.6365C392.446 95.4945 389.089 92.1384 384.947 92.1384C380.806 92.1384 377.449 95.4945 377.449 99.6365V100.932C365.516 93.581 352.932 87.2866 339.913 82.2079C336.055 80.7023 331.708 82.6098 330.203 86.4688C328.699 90.3268 330.605 94.6737 334.463 96.1793Z" fill="#FF8A65"/>
<path d="M136.637 114.647C137.976 114.647 139.331 114.289 140.555 113.537C147.555 109.236 154.844 105.315 162.294 101.826L161.904 103.286C160.834 107.286 163.21 111.396 167.211 112.466C167.859 112.639 168.511 112.722 169.152 112.722C172.463 112.722 175.495 110.51 176.391 107.159L180.97 90.025C181.989 86.2129 179.878 82.262 176.142 80.9913L162.401 76.3145C158.484 74.9768 154.222 77.0753 152.888 80.9973C151.923 83.8306 152.757 86.8348 154.77 88.7903C147.214 92.3804 139.82 96.3893 132.706 100.76C129.178 102.929 128.074 107.545 130.242 111.074C131.657 113.377 134.118 114.647 136.637 114.647Z" fill="#FF8A65"/>
</g>
<defs>
<clipPath id="clip0_207_128">
<rect width="512" height="512" fill="white"/>
</clipPath>
</defs>
</svg>
