<svg width="512" height="512" viewBox="0 0 512 512" fill="none" xmlns="http://www.w3.org/2000/svg">
<path d="M448 80H480C484.8 80 488 76.8 488 72V40C488 35.2 484.8 32 480 32H448C443.2 32 440 35.2 440 40V48H287.2C283.2 31.2 265.6 20.8 248.8 24.8C237.6 28 228.8 36.8 225.6 48H72V40C72 35.2 68.8 32 64 32H32C27.2 32 24 35.2 24 40V72C24 76.8 27.2 80 32 80H64C68.8 80 72 76.8 72 72V64H176C108.8 92 61.6 152.8 50.4 224.8C32.8 228 20.8 244 24 261.6C27.2 279.2 43.2 291.2 60.8 288C78.4 284.8 90.4 268.8 87.2 251.2C85.6 240 76.8 230.4 66.4 226.4C79.2 144 144 79.2 225.6 66.4C231.2 83.2 249.6 92 265.6 86.4C275.2 83.2 282.4 76 285.6 66.4C368 79.2 432.8 144 445.6 225.6C428.8 231.2 420 249.6 426.4 266.4C432 283.2 450.4 292 467.2 285.6C484 280 492.8 261.6 486.4 244.8C482.4 233.6 472.8 225.6 461.6 224C450.4 152.8 403.2 92 336 64H440V72C440 76.8 443.2 80 448 80ZM56 64H40V48H56V64ZM72 256C72 264.8 64.8 272 56 272C47.2 272 40 264.8 40 256C40 247.2 47.2 240 56 240C64.8 240 72 247.2 72 256ZM472 256C472 264.8 464.8 272 456 272C447.2 272 440 264.8 440 256C440 247.2 447.2 240 456 240C464.8 240 472 247.2 472 256ZM256 72C247.2 72 240 64.8 240 56C240 47.2 247.2 40 256 40C264.8 40 272 47.2 272 56C272 64.8 264.8 72 256 72ZM456 48H472V64H456V48ZM263.2 116.8C263.2 116 262.4 116 261.6 115.2C258.4 112 253.6 112 250.4 114.4L249.6 115.2C248.8 116 248.8 116 248 116.8L157.6 292C156.8 294.4 156 296.8 157.6 298.4L192 382.4C182.4 391.2 180.8 406.4 189.6 416C190.4 416.8 191.2 417.6 192 418.4V464C192 477.6 202.4 488 216 488H296C309.6 488 320 477.6 320 464V417.6C329.6 408.8 330.4 393.6 322.4 384C321.6 383.2 320.8 382.4 320 381.6L354.4 298.4C355.2 296 355.2 293.6 354.4 292L263.2 116.8ZM256 264C264.8 264 272 271.2 272 280C272 288.8 264.8 296 256 296C247.2 296 240 288.8 240 280C240 271.2 247.2 264 256 264ZM312 400C312 404.8 308.8 408 304 408H208C203.2 408 200 404.8 200 400C200 395.2 203.2 392 208 392H304C308.8 392 312 395.2 312 400ZM304 464C304 468.8 300.8 472 296 472H216C211.2 472 208 468.8 208 464V424H304V464ZM304.8 376H207.2L173.6 296L248 153.6V249.6C231.2 254.4 220.8 271.2 224.8 288.8C229.6 305.6 246.4 316 264 312C281.6 308 291.2 290.4 287.2 272.8C284 261.6 275.2 252.8 264 249.6V153.6L338.4 296L304.8 376Z" fill="#FF8A65"/>
</svg>
