<svg width="512" height="512" viewBox="0 0 512 512" fill="none" xmlns="http://www.w3.org/2000/svg">
<path fill-rule="evenodd" clip-rule="evenodd" d="M102.3 0.0122248C109.9 -0.0877752 114.5 0.412225 120.3 2.01222C124.5 3.21222 129.8 4.91222 132 5.91222C134.2 6.81222 138.7 9.31222 142 11.3122C145.7 13.6122 157.9 24.9122 173.3 40.3122C188.5 55.3122 200.4 68.0122 203 71.9122C205.3 75.5122 208.4 81.1122 209.8 84.4122C211.2 87.7122 213 93.9122 213.9 98.1122C214.8 102.412 215.5 108.812 215.5 112.412C215.5 116.012 214.8 122.212 214 126.112C213.2 130.112 211.4 136.312 209.9 139.912C208.5 143.512 205.7 148.912 203.8 151.912C201.8 154.912 192.1 165.712 182.1 175.912C171.5 186.612 163.1 196.112 162 198.412C160.9 200.612 159.9 205.312 159.7 208.912C159.3 214.312 159.7 216.412 161.7 220.912C163.4 224.612 169.6 232.712 181.1 245.912C190.4 256.612 208.8 276.112 222 289.412C235.3 302.612 254.8 321.012 265.5 330.312C278.7 341.812 286.8 348.012 290.5 349.712C295 351.712 297.1 352.112 302.5 351.712C306.1 351.512 310.8 350.512 313 349.412C315.3 348.312 324.8 339.912 335.5 329.312C345.7 319.312 356.5 309.612 359.5 307.612C362.5 305.712 367.9 302.912 371.5 301.512C375.1 300.012 381.3 298.212 385.3 297.412C389.2 296.612 395.4 295.912 399 295.912C402.6 295.912 409 296.612 413.3 297.512C417.5 298.412 423.7 300.212 427 301.612C430.3 303.012 435.9 306.112 439.5 308.412C443.5 311.112 456 322.912 471.6 338.612C488.667 355.812 498.4 366.412 500.8 370.412C502.7 373.712 505.2 378.712 506.3 381.412C507.4 384.212 509 389.912 509.9 394.212C510.8 398.412 511.5 404.812 511.5 408.412C511.5 412.012 510.8 418.412 509.9 422.712C509 426.912 507.2 433.112 505.8 436.412C504.4 439.712 501.2 445.512 498.6 449.312C496.1 453.212 490 459.912 485.2 464.312C480.3 468.812 472.7 475.012 468.2 478.212C463.7 481.512 455.7 486.512 450.5 489.412C445.3 492.312 436.5 496.512 431 498.712C425.5 500.912 416.7 503.912 411.5 505.312C406.3 506.712 398.2 508.612 393.5 509.512C388.6 510.512 377.8 511.312 368 511.612C352.9 512.012 349.4 511.712 336 509.412C327.8 507.912 315.6 505.012 309 502.812C302.4 500.612 292.5 496.612 287 493.912C281.5 491.312 273.6 486.912 269.5 484.312C265.4 481.612 254.1 473.612 244.5 466.512C234.9 459.412 219.8 447.712 211 440.512C202.2 433.412 187.1 420.512 177.5 412.012C167.9 403.412 149.9 386.312 137.5 373.912C125.1 361.512 108 343.512 99.4 333.912C90.9 324.312 78 309.212 70.9 300.412C63.7 291.612 52 276.512 44.9 266.912C37.8 257.312 30.2 246.712 28.1 243.412C25.9 240.112 21.8 232.912 19 227.412C16.2 221.912 12.4 213.412 10.6 208.412C8.8 203.412 6.3 195.112 5 189.912C3.7 184.712 2.1 177.012 1.3 172.912C0.5 168.412 0 157.912 0 146.912C0 133.112 0.5 125.912 1.9 118.412C2.9 112.912 5 103.812 6.6 98.2122C8.2 92.5122 11.1 84.0122 13.1 79.2122C15.1 74.3122 19.1 66.1122 22 60.9122C24.9 55.7122 29.9 47.8122 33 43.4122C36.2 39.0122 42.2 31.6122 46.4 27.0122C50.6 22.3122 56.7 16.6122 60 14.1122C63.3 11.7122 68.5 8.61222 71.5 7.21222C74.5 5.71222 80.4 3.51222 84.5 2.31222C89.9 0.712225 94.8 0.112225 102.3 0.0122248ZM79.5 25.7122C73.7 28.5122 70.1 31.3122 63.7 37.9122C59.1 42.6122 52.5 50.4122 48.9 55.4122C45.4 60.4122 39.8 69.8122 36.5 76.4122C33.2 83.0122 29.1 92.7122 27.4 97.9122C25.7 103.112 23.4 111.712 22.4 116.912C21.3 122.112 20.2 132.712 19.8 140.412C19.4 149.412 19.6 157.812 20.4 163.912C21.1 169.112 22.3 176.612 23.2 180.412C24 184.212 25.8 191.012 27.2 195.412C28.6 199.812 32.1 208.412 34.9 214.412C37.8 220.412 42.5 229.012 45.5 233.412C48.5 237.812 55.4 247.512 60.8 254.912C66.3 262.312 76.2 275.212 82.8 283.412C89.5 291.712 102.6 307.112 111.9 317.812C121.3 328.512 139.2 347.412 151.6 359.812C164 372.212 182.9 390.112 193.6 399.512C204.3 408.812 219.8 421.912 228 428.612C236.3 435.212 250 445.712 258.5 452.012C267 458.312 276.9 465.312 280.5 467.612C284.1 469.912 291.7 474.012 297.5 476.712C303.3 479.512 311.6 482.812 316 484.212C320.4 485.612 328.7 487.812 334.5 489.012C343.2 490.912 348.2 491.312 363.5 491.312C377.5 491.412 384.4 491.012 392 489.512C397.5 488.512 407.3 485.912 413.8 483.812C420.2 481.712 429.2 478.012 433.8 475.812C438.3 473.512 445.7 469.212 450.3 466.312C454.8 463.312 458.5 460.612 458.5 460.212C458.5 459.712 433.2 434.112 402.2 403.212L346 347.012C332.4 360.112 326.3 365.012 323.5 366.412C320.8 367.812 315.9 369.612 312.8 370.412C309.6 371.212 304.1 371.912 300.5 371.912C296.8 371.912 291.2 371.112 287.5 370.012C283.9 368.912 278.7 366.512 275.8 364.712C273 362.912 262.4 354.212 252.3 345.412C242.2 336.612 222.3 317.712 208 303.412C193.7 289.112 174.8 269.212 166 259.112C157.2 249.012 148.5 238.412 146.7 235.612C144.9 232.712 142.5 227.512 141.4 223.912C140.3 220.212 139.5 214.612 139.5 210.912C139.5 207.312 140.2 201.812 141 198.712C141.8 195.512 143.6 190.712 145 187.912C146.4 185.212 151.3 179.012 155.9 174.212L164.4 165.412C97.4 98.2122 96.5 97.3122 96.5 93.4122C96.4 90.3122 97.1 88.8122 99.2 86.6122C100.7 85.1122 102.9 83.7122 104 83.6122C105.1 83.4122 107.4 83.7122 109 84.1122C111.1 84.7122 122.2 95.1122 145.3 118.212L178.6 151.412C184.8 144.412 188.1 139.312 190 135.412C192.2 131.012 193.9 125.512 194.7 120.412C195.6 114.112 195.6 110.712 194.7 104.412C193.9 99.2122 192.2 93.7122 189.9 88.9122C186.6 82.0122 184.1 79.3122 160.1 55.3122C135.9 31.0122 133.5 28.9122 126.5 25.6122C122.4 23.7122 116.6 21.6122 113.8 21.0122C110.9 20.4122 105.9 20.0122 102.8 20.0122C99.6 20.1122 94.8 20.5122 92 21.1122C89.3 21.6122 83.6 23.7122 79.5 25.7122ZM376 321.412C372.1 323.312 367 326.612 364.5 328.812L360 332.812L474.6 447.412C480.7 440.412 484 435.212 485.9 431.412C487.8 427.612 489.8 421.712 490.4 418.412C491 415.112 491.5 410.312 491.5 407.712C491.5 405.012 491 400.512 490.4 397.712C489.8 394.812 487.7 389.012 485.8 384.912C482.5 377.912 480.4 375.512 456.1 351.312C432 327.112 429.4 324.912 422.5 321.612C418.4 319.612 412.3 317.612 409 317.012C405.7 316.412 400.8 315.912 398 316.012C395.3 316.112 390.8 316.512 388 317.112C385.3 317.612 379.9 319.512 376 321.412ZM378 40.0122C454.2 39.9122 467.8 40.1122 472.8 41.4122C475.9 42.2122 481.3 44.3122 484.8 46.1122C488.2 47.8122 493.5 51.7122 496.6 54.8122C499.7 57.9122 503.6 63.2122 505.3 66.6122C507.1 70.1122 509.2 75.5122 510 78.6122C511.3 83.4122 511.5 93.3122 511.5 135.912C511.5 178.512 511.3 188.412 510 193.212C509.2 196.312 507.1 201.712 505.3 205.212C503.6 208.612 499.7 213.912 496.6 217.012C493.5 220.112 488.2 224.012 484.8 225.712C481.3 227.512 475.9 229.612 472.8 230.412C468.8 231.412 462.1 231.912 436.6 231.912L418.8 250.012C409 259.912 399.8 268.712 398.3 269.512C396.7 270.312 394.6 270.912 393.5 270.912C392.4 270.912 390.3 270.312 388.9 269.612C387.4 269.012 385.6 267.212 384.9 265.612C383.9 263.712 383.5 258.612 383.5 231.912H336.8C298.3 231.912 289 231.612 284.3 230.412C281.1 229.612 275.7 227.512 272.3 225.712C268.8 224.012 263.5 220.112 260.4 217.012C257.3 213.912 253.4 208.612 251.7 205.212C249.9 201.712 247.8 196.312 247 193.212C245.7 188.412 245.5 178.512 245.5 135.912C245.5 93.3122 245.7 83.4122 247 78.6122C247.8 75.5122 249.9 70.1122 251.7 66.6122C253.4 63.2122 257.3 57.9122 260.4 54.8122C263.5 51.7122 268.8 47.8122 272.3 46.1122C275.7 44.3122 280.9 42.3122 283.8 41.5122C288.1 40.3122 304 40.0122 378 40.0122ZM277.1 66.4122C275 68.1122 272 71.4122 270.4 73.9122C268.8 76.4122 267 80.6122 266.4 83.4122C265.7 86.7122 265.5 106.012 265.7 138.912C266 187.312 266.1 189.612 268.1 193.912C269.2 196.412 272.1 200.412 274.6 202.812C277 205.312 281 208.212 283.5 209.312C287.8 211.312 290.2 211.412 342.7 211.912L397.5 212.412C402.8 217.812 403 218.612 403.3 227.712L403.6 237.412L428.5 212.412C466.3 211.412 469.6 211.112 473.5 209.312C476 208.212 480 205.312 482.4 202.812C484.9 200.412 487.8 196.412 488.9 193.912C490.9 189.512 491 187.712 491 135.912C491 84.1122 490.9 82.3122 488.9 77.9122C487.8 75.4122 484.9 71.4122 482.4 69.0122C480 66.5122 476 63.6122 473.5 62.5122C469.1 60.4122 467.4 60.4122 380 60.2122C297.7 60.0122 290.6 60.1122 286 61.7122C283.3 62.6122 279.3 64.8122 277.1 66.4122ZM78.8 55.9122C79.7 55.9122 81.5 56.4122 82.8 57.0122C84 57.6122 85.8 59.1122 86.7 60.3122C87.7 61.4122 88.5 64.0122 88.5 65.9122C88.5 67.8122 87.7 70.4122 86.7 71.5122C85.8 72.7122 83.9 74.2122 82.5 74.9122C81.1 75.6122 78.7 75.9122 77 75.5122C75.4 75.2122 73.2 74.2122 72.3 73.2122C71.4 72.2122 70.2 70.0122 69.6 68.4122C68.6 65.9122 68.8 64.8122 70.5 62.0122C71.6 60.1122 73.5 57.9122 74.7 57.2122C76 56.5122 77.8 55.9122 78.8 55.9122ZM331.5 126.412C333.4 126.712 335.6 127.512 336.4 128.212C337.2 128.812 338.4 130.912 339.2 132.612C340.2 135.112 340.2 136.612 339.4 138.612C338.8 140.212 337.6 142.212 336.7 143.212C335.8 144.212 333.7 145.212 332 145.512C330.4 145.912 327.9 145.612 326.5 144.912C325.1 144.212 323.2 142.712 322.3 141.512C321.3 140.412 320.5 137.812 320.5 135.912C320.5 134.012 321.3 131.412 322.3 130.312C323.2 129.112 324.9 127.612 326 127.012C327.1 126.412 329.6 126.112 331.5 126.412ZM379.3 126.012C380.5 125.912 383 127.412 385 129.412C387.4 131.812 388.5 133.812 388.5 135.912C388.5 138.012 387.4 140.012 384.9 142.612C381.6 146.112 381 146.312 377.6 145.712C375.6 145.212 372.9 143.812 371.5 142.412C369.7 140.612 369 138.812 369 136.012C369 133.712 369.8 131.212 370.8 129.912C371.8 128.612 373.6 127.312 374.8 126.812C376 126.412 378 126.012 379.3 126.012ZM426.8 125.912C427.7 125.912 429.9 126.612 431.5 127.412C433.2 128.212 435 129.812 435.5 130.912C436.1 132.012 436.5 134.412 436.5 136.112C436.5 137.912 435.9 140.312 435.2 141.412C434.4 142.512 432.5 144.012 430.9 144.712C429.3 145.512 426.8 145.812 425.3 145.512C423.7 145.212 421.4 143.812 420 142.412C418.3 140.712 417.5 138.812 417.5 136.412C417.5 134.512 418 132.012 418.5 130.912C419.1 129.812 420.7 128.212 422.3 127.412C423.8 126.612 425.8 126.012 426.8 125.912ZM124.9 277.912C127.4 277.912 129.4 278.712 131.6 280.612C134.1 282.812 134.7 284.312 134.9 287.612C135 290.812 134.4 292.312 132.5 294.312C131.1 295.812 128.8 297.112 127.3 297.412C125.7 297.712 123 297.212 121.3 296.412C119.5 295.612 117.4 293.812 116.8 292.412C116.1 291.012 115.5 288.512 115.6 286.812C115.6 284.912 116.7 282.712 118.5 280.812C120.6 278.712 122.3 277.912 124.9 277.912ZM153 307.512C155.2 307.812 161.5 313.412 178 329.712C190.1 341.712 204.4 355.512 209.8 360.412C215.2 365.412 220 370.512 220.4 371.912C220.9 373.312 221.1 375.512 220.8 376.912C220.5 378.312 219.1 380.612 217.6 382.212C215.6 384.312 214.1 384.912 211.3 384.912C208.4 384.912 206.3 384.012 202.8 381.112C200.1 379.012 185.9 365.412 171.1 350.812C156.4 336.312 143.6 323.212 142.9 321.612C142.1 320.112 141.5 317.912 141.5 316.612C141.4 315.412 142.4 313.112 143.5 311.612C144.7 310.012 146.6 308.312 147.8 307.812C149 307.412 151.4 307.212 153 307.512Z" fill="#FFA726"/>
</svg>
