<svg width="37" height="37" viewBox="0 0 37 37" fill="none" xmlns="http://www.w3.org/2000/svg">
<path d="M14.5 0C6.50963 0 0 6.50964 0 14.5C0 22.4904 6.50963 29 14.5 29C17.9564 29 21.1337 27.779 23.6289 25.75L33.4395 35.5605C33.5777 35.7045 33.7432 35.8194 33.9264 35.8986C34.1096 35.9778 34.3068 36.0196 34.5063 36.0216C34.7059 36.0237 34.9038 35.9859 35.0886 35.9104C35.2734 35.835 35.4412 35.7234 35.5823 35.5823C35.7234 35.4412 35.835 35.2734 35.9104 35.0886C35.9859 34.9038 36.0237 34.7059 36.0216 34.5063C36.0196 34.3068 35.9778 34.1096 35.8986 33.9264C35.8194 33.7432 35.7045 33.5777 35.5605 33.4395L25.75 23.6289C27.779 21.1337 29 17.9564 29 14.5C29 6.50964 22.4904 0 14.5 0ZM14.5 3C20.869 3 26 8.13096 26 14.5C26 17.6026 24.7762 20.4057 22.791 22.4707C22.6686 22.5606 22.5606 22.6686 22.4707 22.791C20.4057 24.7762 17.6026 26 14.5 26C8.13095 26 3 20.869 3 14.5C3 8.13096 8.13095 3 14.5 3ZM14.4766 7.97852C14.0791 7.98473 13.7003 8.14845 13.4235 8.43373C13.1466 8.71901 12.9943 9.10251 13 9.5V13H9.5C9.30123 12.9972 9.10389 13.0339 8.91944 13.108C8.73498 13.1822 8.5671 13.2922 8.42555 13.4318C8.28399 13.5713 8.17159 13.7376 8.09487 13.921C8.01815 14.1044 7.97864 14.3012 7.97864 14.5C7.97864 14.6988 8.01815 14.8956 8.09487 15.079C8.17159 15.2624 8.28399 15.4287 8.42555 15.5682C8.5671 15.7078 8.73498 15.8178 8.91944 15.892C9.10389 15.9661 9.30123 16.0028 9.5 16H13V19.5C12.9972 19.6988 13.0339 19.8961 13.108 20.0806C13.1822 20.265 13.2922 20.4329 13.4318 20.5745C13.5713 20.716 13.7376 20.8284 13.921 20.9051C14.1044 20.9819 14.3012 21.0214 14.5 21.0214C14.6988 21.0214 14.8956 20.9819 15.079 20.9051C15.2624 20.8284 15.4287 20.716 15.5682 20.5745C15.7078 20.4329 15.8178 20.265 15.892 20.0806C15.9661 19.8961 16.0028 19.6988 16 19.5V16H19.5C19.6988 16.0028 19.8961 15.9661 20.0806 15.892C20.265 15.8178 20.4329 15.7078 20.5745 15.5682C20.716 15.4287 20.8284 15.2624 20.9051 15.079C20.9819 14.8956 21.0214 14.6988 21.0214 14.5C21.0214 14.3012 20.9819 14.1044 20.9051 13.921C20.8284 13.7376 20.716 13.5713 20.5745 13.4318C20.4329 13.2922 20.265 13.1822 20.0806 13.108C19.8961 13.0339 19.6988 12.9972 19.5 13H16V9.5C16.0029 9.29923 15.9654 9.09993 15.8899 8.91391C15.8143 8.72788 15.7022 8.55892 15.5601 8.41704C15.418 8.27515 15.2489 8.16323 15.0628 8.0879C14.8767 8.01258 14.6773 7.97538 14.4766 7.97852Z" fill="#263238"/>
</svg>
